<?xml version="1.0" standalone="no"?>
<!DOCTYPE svg PUBLIC "-//W3C//DTD SVG 20010904//EN"
 "http://www.w3.org/TR/2001/REC-SVG-20010904/DTD/svg10.dtd">
<svg version="1.0" xmlns="http://www.w3.org/2000/svg"
 width="50.000000pt" height="50.000000pt" viewBox="0 0 512.000000 512.000000"
 preserveAspectRatio="xMidYMid meet">

<g transform="translate(0.000000,512.000000) scale(0.100000,-0.100000)"
fill="#ffffff" stroke="none">
<path d="M2453 5102 c-142 -51 -230 -166 -240 -311 -4 -59 20 -190 63 -333 4
-15 -5 -17 -68 -20 l-73 -3 -3 -82 -3 -83 86 0 85 0 0 -84 0 -84 -422 -5
c-460 -6 -488 -8 -659 -67 -50 -17 -92 -30 -93 -28 -1 2 -12 19 -25 40 -24 40
-62 58 -101 48 -22 -5 -41 -26 -75 -85 -10 -16 -19 -13 -103 29 -50 25 -94 46
-97 46 -5 0 -75 -135 -75 -145 0 -2 45 -27 99 -54 l99 -50 -425 -928 -425
-927 6 -70 c13 -143 88 -292 195 -387 64 -57 190 -122 271 -139 39 -8 211 -10
585 -8 521 3 531 3 589 25 150 57 270 163 336 296 44 89 75 211 67 267 -3 19
-195 449 -426 954 -232 506 -418 922 -414 926 14 13 118 48 194 65 61 14 149
18 487 22 l412 5 0 -1569 0 -1568 -143 -143 -142 -142 -181 0 c-196 0 -255
-10 -336 -55 -104 -58 -185 -173 -208 -294 -15 -82 -13 -100 19 -132 l29 -29
1222 0 1222 0 29 29 c32 32 34 50 19 132 -23 121 -104 236 -208 294 -81 45
-140 55 -337 55 l-180 0 -143 143 -142 142 0 1569 0 1568 413 -5 c337 -4 425
-8 486 -22 76 -17 180 -52 194 -65 4 -4 -182 -421 -414 -926 -231 -505 -423
-935 -426 -954 -7 -56 23 -178 67 -267 66 -133 186 -239 336 -296 58 -22 68
-22 589 -25 374 -2 546 0 585 8 79 17 206 81 269 137 114 100 194 268 195 408
l1 70 -422 918 -421 918 99 50 c54 27 99 52 99 54 0 10 -70 145 -75 145 -3 0
-46 -20 -95 -45 -49 -25 -92 -45 -95 -45 -2 0 -14 18 -25 41 -39 75 -120 82
-161 15 -10 -17 -20 -35 -22 -40 -1 -4 -44 6 -95 23 -173 60 -200 62 -659 68
l-423 5 0 84 0 84 85 0 86 0 -3 83 -3 82 -73 3 c-64 3 -72 5 -68 20 3 9 20 75
37 147 24 100 30 144 26 191 -14 176 -150 309 -328 320 -56 4 -87 0 -126 -14z
m152 -163 c57 -16 95 -46 116 -93 26 -57 24 -81 -18 -253 l-37 -153 -106 0
-106 0 -37 153 c-42 172 -44 196 -18 253 21 46 59 77 111 92 47 14 49 14 95 1z
m43 -756 l3 -83 -91 0 -90 0 0 78 c0 43 3 82 7 86 4 4 43 5 88 4 l80 -3 3 -82z
m-3 -1793 l0 -1535 -85 0 -85 0 -3 1525 c-1 839 0 1531 3 1538 3 9 27 12 87
10 l83 -3 0 -1535z m-1209 518 l390 -853 -397 -3 c-219 -1 -580 -1 -802 0
l-405 3 390 853 c338 737 394 852 412 852 18 0 74 -115 412 -852z m3072 0
l390 -853 -405 -3 c-222 -1 -583 -1 -802 0 l-397 3 390 853 c338 737 394 852
412 852 18 0 74 -115 412 -852z m-2643 -1050 c-34 -119 -142 -243 -251 -288
l-59 -25 -512 -3 c-574 -3 -571 -3 -680 67 -82 53 -155 154 -177 244 l-6 27
845 0 846 0 -6 -22z m3069 -5 c-22 -90 -95 -191 -177 -244 -109 -70 -106 -70
-680 -67 l-512 3 -59 25 c-109 45 -217 169 -251 288 l-6 22 846 0 845 0 -6
-27z m-2154 -1258 l85 -85 -305 0 -305 0 85 85 85 85 135 0 135 0 85 -85z
m711 -267 c66 -22 133 -83 155 -140 6 -17 -50 -18 -1086 -18 -1036 0 -1092 1
-1086 18 22 56 84 114 150 139 44 16 1818 18 1867 1z"/>
</g>
</svg>
