<?xml version="1.0" standalone="no"?>
<!DOCTYPE svg PUBLIC "-//W3C//DTD SVG 20010904//EN"
 "http://www.w3.org/TR/2001/REC-SVG-20010904/DTD/svg10.dtd">
<svg version="1.0" xmlns="http://www.w3.org/2000/svg"
 width="50.000000pt" height="50.000000pt" viewBox="0 0 512.000000 512.000000"
 preserveAspectRatio="xMidYMid meet">

<g transform="translate(0.000000,512.000000) scale(0.100000,-0.100000)"
fill="#ffffff" stroke="none">
<path d="M1305 5018 c-15 -13 -31 -43 -38 -69 -12 -46 -21 -54 -361 -328
l-348 -281 -215 0 c-214 0 -214 0 -238 -25 l-25 -24 0 -310 0 -310 24 -28 24
-28 315 0 c296 0 316 1 336 19 12 11 24 37 27 58 l7 38 93 0 94 0 0 -1554 0
-1555 -151 -3 -151 -3 -24 -28 c-24 -28 -24 -30 -24 -243 0 -215 0 -215 25
-239 l24 -25 650 0 650 0 28 24 28 24 0 221 c0 284 14 265 -195 269 l-150 3 0
1555 0 1554 740 0 740 0 0 -175 0 -175 -84 0 c-68 0 -88 -4 -107 -19 l-24 -19
0 -262 0 -262 24 -19 c21 -18 42 -19 276 -19 234 0 255 1 276 19 l24 19 0 261
c0 313 8 294 -128 301 l-92 5 -3 173 -2 172 181 0 181 0 29 29 c31 32 36 54
16 89 -6 12 -106 101 -221 197 l-210 175 -74 0 -74 0 -733 353 -733 352 -6 37
c-4 23 -16 44 -32 57 -24 19 -40 21 -185 21 -149 0 -159 -1 -184 -22z m243
-465 l-3 -328 -152 -3 c-84 -1 -153 1 -153 5 0 3 39 152 87 330 l87 323 68 0
68 0 -2 -327z m1190 -299 c28 -13 52 -26 52 -29 0 -3 -243 -5 -540 -5 l-540 0
0 264 0 264 488 -235 c268 -129 511 -246 540 -259z m-1599 220 c-22 -82 -47
-173 -55 -201 l-15 -53 -128 0 -129 0 -5 33 c-3 17 -8 41 -11 52 -4 17 28 47
186 173 105 84 192 151 194 149 2 -2 -15 -71 -37 -153z m-491 -496 l-3 -203
-202 -3 -203 -2 0 205 0 205 205 0 205 0 -2 -202z m387 22 c-33 -33 -62 -60
-66 -60 -6 0 -79 105 -79 115 0 3 46 5 102 5 l102 0 -59 -60z m652 -7 l-67
-68 -67 68 -68 67 135 0 135 0 -68 -67z m670 0 l-67 -68 -67 68 -68 67 135 0
135 0 -68 -67z m670 0 l-67 -68 -67 68 -68 67 135 0 135 0 -68 -67z m-1670
-25 c35 -34 63 -66 63 -70 0 -4 -62 -8 -137 -8 l-137 0 69 70 c38 39 72 70 74
70 3 0 34 -28 68 -62z m668 -8 l69 -70 -139 0 -139 0 69 70 c38 39 70 70 70
70 0 0 32 -31 70 -70z m670 0 l69 -70 -139 0 -139 0 69 70 c38 39 70 70 70 70
0 0 32 -31 70 -70z m686 4 c43 -36 79 -68 79 -70 0 -2 -71 -4 -157 -4 l-157 0
69 70 c38 39 73 70 78 70 5 0 45 -30 88 -66z m-1831 -364 c0 -71 -3 -130 -8
-130 -4 0 -66 59 -137 130 l-130 130 138 0 137 0 0 -130z m-212 -163 l172
-172 -175 -175 -175 -175 0 348 c0 191 1 347 3 347 1 0 80 -78 175 -173z
m2082 -357 l0 -140 -145 0 -145 0 0 140 0 140 145 0 145 0 0 -140z m-1870
-362 l0 -353 -177 177 -178 178 175 175 c96 96 176 175 177 175 2 0 3 -159 3
-352z m-212 -371 l172 -172 -175 -175 -175 -175 0 348 c0 191 1 347 3 347 1 0
80 -78 175 -173z m212 -724 l0 -348 -177 177 -178 178 170 170 c93 93 173 170
177 170 5 0 8 -156 8 -347z m-213 -720 l-177 -178 0 355 0 355 177 -178 178
-177 -178 -177z m213 -153 l0 -130 -137 0 -138 0 130 130 c71 72 133 130 137
130 5 0 8 -58 8 -130z m348 -402 l3 -108 -546 0 -545 0 0 110 0 110 543 -2
542 -3 3 -107z"/>
<path d="M3952 3463 c-28 -11 -42 -62 -42 -158 l0 -95 -89 0 c-81 0 -93 -3
-118 -24 l-28 -24 -3 -496 -3 -496 -39 0 -40 0 0 108 c0 166 39 152 -441 152
l-396 0 -21 -23 c-20 -21 -22 -34 -22 -130 l0 -107 -95 0 c-88 0 -98 -2 -120
-25 l-25 -24 0 -1000 0 -1000 26 -20 c27 -21 27 -21 1261 -21 l1234 0 24 25
25 24 0 1505 c0 1082 -3 1512 -11 1529 -16 36 -50 47 -144 47 l-85 0 0 105 c0
99 -2 107 -25 130 l-24 25 -393 -1 c-216 0 -399 -3 -406 -6z m688 -203 l0 -50
-285 0 -285 0 0 50 0 50 285 0 285 0 0 -50z m240 -1615 l0 -1405 -64 0 -65 0
-3 403 c-3 392 -4 403 -25 443 -27 51 -69 87 -126 109 -37 14 -76 16 -258 13
-235 -3 -245 -6 -309 -70 -60 -60 -60 -59 -60 -498 l0 -400 -70 0 -70 0 0
1405 0 1405 525 0 525 0 0 -1405z m-1450 575 l0 -50 -280 0 -280 0 0 50 0 50
280 0 280 0 0 -50z m240 -1095 l0 -885 -520 0 -520 0 0 885 0 885 520 0 520 0
0 -885z m895 -100 l25 -24 0 -381 0 -380 -230 0 -230 0 0 389 0 390 22 15 c18
13 56 16 206 16 181 0 183 0 207 -25z"/>
<path d="M3939 2791 l-29 -29 0 -571 0 -570 24 -28 24 -28 395 0 395 0 26 24
26 24 0 573 c0 315 -3 580 -6 589 -17 42 -44 45 -444 45 l-382 0 -29 -29z
m339 -233 l-3 -103 -102 -3 -103 -3 0 106 0 105 105 0 106 0 -3 -102z m362 -3
l0 -105 -100 0 -100 0 0 105 0 105 100 0 100 0 0 -105z m-360 -365 l0 -100
-105 0 -105 0 0 100 0 100 105 0 105 0 0 -100z m360 0 l0 -100 -100 0 -100 0
0 100 0 100 100 0 100 0 0 -100z m-362 -362 l-3 -103 -100 0 -100 0 -3 103 -3
102 106 0 106 0 -3 -102z m362 -3 l0 -105 -100 0 -100 0 0 105 0 105 100 0
100 0 0 -105z"/>
<path d="M2732 1727 l-22 -23 0 -580 0 -581 23 -21 c23 -22 26 -22 418 -22
l396 0 21 23 22 23 0 580 0 581 -23 21 c-23 22 -26 22 -418 22 l-396 0 -21
-23z m338 -237 l0 -100 -100 0 -100 0 0 100 0 100 100 0 100 0 0 -100z m360 0
l0 -100 -100 0 -100 0 0 100 0 100 100 0 100 0 0 -100z m-360 -365 l0 -105
-100 0 -100 0 0 105 0 105 100 0 100 0 0 -105z m360 0 l0 -105 -100 0 -100 0
0 105 0 105 100 0 100 0 0 -105z m-360 -365 l0 -100 -100 0 -100 0 0 100 0
100 100 0 100 0 0 -100z m360 0 l0 -100 -100 0 -100 0 0 100 0 100 100 0 100
0 0 -100z"/>
</g>
</svg>
