<?xml version="1.0" standalone="no"?>
<!DOCTYPE svg PUBLIC "-//W3C//DTD SVG 20010904//EN"
 "http://www.w3.org/TR/2001/REC-SVG-20010904/DTD/svg10.dtd">
<svg version="1.0" xmlns="http://www.w3.org/2000/svg"
 width="50.000000pt" height="50.000000pt" viewBox="0 0 512.000000 512.000000"
 preserveAspectRatio="xMidYMid meet">

<g transform="translate(0.000000,512.000000) scale(0.100000,-0.100000)"
fill="#ffffff" stroke="none">
<path d="M3641 4814 c-14 -18 -21 -41 -21 -70 l0 -44 -113 0 c-131 0 -179 -17
-231 -83 l-31 -39 -3 -238 -3 -238 27 -21 c34 -26 54 -27 88 0 l26 20 0 203
c0 258 -7 246 136 246 l104 0 0 -222 c0 -158 5 -244 15 -293 42 -198 206 -373
397 -422 l68 -17 0 -148 0 -148 -375 0 c-253 0 -382 -4 -398 -11 -44 -20 -47
-44 -47 -329 l0 -270 -795 0 -796 0 -24 -25 c-25 -24 -25 -26 -25 -215 l0
-190 -798 0 -799 0 -21 -23 -22 -23 0 -941 c0 -936 0 -940 21 -967 l20 -26
2495 0 c2481 0 2494 0 2514 20 20 20 20 33 20 1489 l0 1470 -26 20 c-26 20
-37 21 -410 21 l-384 0 0 148 0 149 58 12 c142 32 297 153 361 283 55 112 61
149 61 416 l0 242 109 0 c76 0 112 -4 119 -13 7 -8 12 -94 14 -226 3 -210 3
-213 27 -232 32 -26 67 -24 96 6 l25 24 0 219 c0 210 -1 221 -23 263 -13 24
-43 58 -66 74 -41 29 -47 30 -172 34 l-129 3 0 49 c0 36 -5 54 -20 69 -19 19
-33 20 -534 20 l-515 0 -20 -26z m949 -403 c0 -153 -5 -303 -10 -332 -30 -160
-156 -293 -312 -329 -203 -47 -416 77 -478 278 -18 58 -20 93 -20 363 l0 299
410 0 410 0 0 -279z m338 -2623 l-3 -1363 -745 0 -745 0 -3 1363 -2 1362 750
0 750 0 -2 -1362z m-1648 -308 l0 -1060 -745 0 -745 0 0 1060 0 1060 745 0
745 0 0 -1060z m-1640 -210 l0 -850 -745 0 -745 0 0 850 0 850 745 0 745 0 0
-850z"/>
<path d="M4043 2064 c-70 -80 -132 -154 -137 -164 -13 -28 11 -76 44 -90 38
-16 60 -3 132 74 l57 61 1 -217 0 -218 -70 0 c-62 0 -74 -3 -95 -25 -30 -29
-32 -64 -6 -96 19 -24 23 -24 223 -27 195 -3 205 -2 231 18 37 29 37 80 1 109
-20 16 -41 21 -85 21 l-59 0 0 330 c0 317 -1 331 -20 350 -12 12 -33 20 -54
20 -32 0 -45 -12 -163 -146z"/>
<path d="M2390 1865 c-61 -19 -113 -65 -144 -127 -49 -98 -27 -178 47 -178 41
0 63 22 72 73 12 65 42 90 113 95 60 4 63 3 97 -31 34 -34 35 -37 35 -112 0
-42 -5 -86 -11 -98 -6 -12 -85 -96 -174 -187 -94 -94 -166 -176 -170 -190 -4
-18 0 -34 15 -53 l21 -27 213 0 c201 0 214 1 231 20 26 29 24 79 -4 102 -19
15 -41 18 -124 18 l-101 0 101 102 c55 57 111 123 123 148 32 62 39 194 15
275 -41 143 -199 218 -355 170z"/>
<path d="M660 1703 c-52 -21 -68 -85 -30 -123 18 -18 33 -20 149 -20 161 0
161 0 161 -109 0 -51 -4 -82 -13 -89 -6 -6 -71 -12 -143 -14 -153 -4 -174 -13
-174 -78 0 -65 21 -74 174 -78 72 -2 137 -9 144 -14 8 -7 12 -38 12 -89 0
-109 0 -109 -161 -109 -116 0 -131 -2 -149 -20 -24 -24 -26 -67 -4 -98 14 -21
21 -22 165 -22 103 0 160 4 182 14 44 18 94 77 108 128 16 60 7 214 -14 256
-17 30 -17 34 0 65 21 41 30 195 14 255 -7 23 -26 58 -43 78 -53 60 -78 68
-228 71 -74 1 -142 0 -150 -4z"/>
</g>
</svg>
