<?xml version="1.0" standalone="no"?>
<!DOCTYPE svg PUBLIC "-//W3C//DTD SVG 20010904//EN"
 "http://www.w3.org/TR/2001/REC-SVG-20010904/DTD/svg10.dtd">
<svg version="1.0" xmlns="http://www.w3.org/2000/svg"
 width="50.000000pt" height="50.000000pt" viewBox="0 0 512.000000 512.000000"
 preserveAspectRatio="xMidYMid meet">

<g transform="translate(0.000000,512.000000) scale(0.100000,-0.100000)"
fill="#ffffff" stroke="none">
<path d="M700 5111 c-83 -26 -151 -93 -174 -172 -10 -33 -16 -92 -16 -160 0
-102 -1 -107 -22 -113 -31 -7 -95 -71 -121 -120 l-22 -41 -3 -1239 c-3 -1371
-6 -1303 62 -1382 18 -22 50 -48 70 -59 l36 -20 0 -601 0 -602 -122 -4 c-108
-4 -131 -8 -185 -32 -74 -34 -144 -103 -174 -173 -23 -52 -37 -194 -25 -257 8
-44 59 -104 103 -122 26 -11 156 -14 663 -14 608 0 632 1 669 20 78 39 107
108 98 230 -8 95 -27 152 -75 215 -73 96 -173 135 -349 135 l-93 0 0 595 0
595 985 0 985 0 0 -276 c0 -185 4 -290 12 -316 17 -57 88 -133 146 -155 44
-17 100 -18 932 -18 487 0 897 3 913 8 69 19 126 101 127 182 1 20 -101 235
-306 645 l-306 615 306 613 c227 454 306 622 306 648 0 68 -43 138 -105 172
-27 15 -86 17 -517 20 l-488 3 0 273 c0 295 -4 325 -56 393 -13 18 -46 45 -72
60 l-47 28 -1405 5 -1405 5 -5 125 c-5 114 -7 129 -33 172 -56 96 -186 150
-287 119z m103 -173 c41 -21 46 -39 47 -146 l0 -103 -82 3 -83 3 0 103 c0 101
1 104 28 128 31 26 57 30 90 12z m3008 -437 l24 -19 3 -1230 2 -1231 -24 -28
-24 -28 -1616 0 -1615 0 -23 23 -23 23 -3 1212 c-1 666 0 1222 3 1234 3 12 15
32 27 43 22 20 28 20 1634 20 1572 0 1612 0 1635 -19z m1139 -756 c0 -3 -139
-284 -310 -625 -170 -341 -310 -631 -310 -645 0 -14 140 -304 310 -646 171
-341 308 -624 305 -630 -7 -10 -1665 -13 -1665 -3 0 4 153 161 340 351 196
198 349 361 362 386 l23 42 3 888 2 887 470 0 c259 0 470 -2 470 -5z m-4100
-2550 l0 -595 -85 0 -85 0 0 595 0 595 85 0 85 0 0 -595z m2770 592 c0 -1
-103 -106 -230 -232 l-230 -230 0 233 0 232 230 0 c127 0 230 -1 230 -3z
m-2333 -1389 c51 -33 74 -83 76 -161 l2 -62 -597 -3 -598 -2 0 57 c0 63 24
126 58 156 50 45 72 47 558 44 l460 -2 41 -27z"/>
<path d="M2285 4157 c-94 -45 -148 -130 -148 -232 0 -70 17 -117 63 -169 43
-48 92 -73 171 -85 74 -12 99 -34 99 -88 0 -44 -37 -83 -80 -83 -22 0 -43 11
-74 40 -52 48 -94 53 -131 15 -79 -78 55 -225 205 -225 99 0 199 67 237 158
22 52 18 141 -8 201 -36 86 -134 151 -225 151 -79 0 -118 97 -59 147 41 35 79
30 126 -17 49 -49 95 -54 134 -15 41 40 29 101 -32 156 -45 42 -93 62 -163 66
-53 3 -74 0 -115 -20z"/>
<path d="M2769 4167 c-46 -35 -50 -88 -10 -128 26 -25 37 -29 85 -29 l56 0 0
-306 c0 -311 2 -333 39 -361 27 -21 79 -15 106 12 l25 24 0 316 0 315 50 0
c55 0 104 20 114 45 13 35 6 76 -19 100 -24 25 -25 25 -227 25 -144 -1 -208
-4 -219 -13z"/>
<path d="M1618 3921 c-41 -9 -50 -15 -263 -185 -235 -187 -247 -201 -247 -289
1 -57 31 -109 127 -215 62 -68 104 -88 171 -78 l44 6 0 -170 0 -170 -87 0
c-49 0 -105 -5 -125 -10 -48 -14 -97 -55 -114 -97 -19 -44 -19 -262 0 -306 17
-42 66 -83 114 -97 50 -13 884 -13 934 0 44 13 93 52 113 91 21 39 21 278 1
317 -40 75 -101 102 -238 102 l-88 0 0 484 c0 319 -4 494 -11 513 -13 36 -46
71 -84 90 -34 18 -188 27 -247 14z m172 -686 c0 -544 1 -562 45 -579 9 -3 79
-6 156 -6 l139 0 0 -90 0 -90 -425 0 -425 0 0 90 0 90 145 0 c142 0 147 1 170
25 l25 24 0 333 c-1 350 -1 352 -47 376 -37 20 -60 14 -127 -37 l-65 -50 -52
65 c-44 56 -50 67 -38 79 8 7 90 74 184 149 l170 136 72 0 73 0 0 -515z"/>
</g>
</svg>
