<?xml version="1.0" standalone="no"?>
<!DOCTYPE svg PUBLIC "-//W3C//DTD SVG 20010904//EN"
 "http://www.w3.org/TR/2001/REC-SVG-20010904/DTD/svg10.dtd">
<svg version="1.0" xmlns="http://www.w3.org/2000/svg"
 width="50.000000pt" height="50.000000pt" viewBox="0 0 512.000000 512.000000"
 preserveAspectRatio="xMidYMid meet">

<g transform="translate(0.000000,512.000000) scale(0.100000,-0.100000)"
fill="#ffffff" stroke="none">
<path d="M3440 4960 l0 -80 400 0 400 0 0 -400 0 -400 80 0 80 0 0 480 0 480
-480 0 -480 0 0 -80z"/>
<path d="M3328 4323 l-448 -448 -320 320 -320 320 -1067 -1067 -1068 -1068 58
-57 57 -58 1010 1010 1010 1010 320 -320 320 -320 505 505 c278 278 505 510
505 515 0 13 -92 105 -105 105 -6 0 -211 -201 -457 -447z"/>
<path d="M3448 3963 l-568 -568 -320 320 -320 320 -1067 -1067 -1068 -1068 58
-57 57 -58 1010 1010 1010 1010 320 -320 320 -320 625 625 c344 344 625 630
625 635 0 13 -92 105 -105 105 -6 0 -265 -255 -577 -567z"/>
<path d="M3250 2885 l-585 -585 58 -57 57 -58 90 90 90 90 0 -1063 0 -1062
-240 0 -240 0 0 662 0 663 90 -90 90 -90 57 58 58 57 -588 588 -587 587 -587
-587 -588 -588 58 -57 57 -58 90 90 90 90 0 -663 0 -662 -80 0 -80 0 0 -80 0
-80 2160 0 2160 0 0 80 0 80 -80 0 -80 0 0 1062 0 1063 90 -90 90 -90 57 58
58 57 -585 585 c-322 322 -587 585 -590 585 -3 0 -268 -263 -590 -585z m895
55 l300 -300 -605 0 -605 0 300 300 c165 165 302 300 305 300 3 0 140 -135
305 -300z m415 -780 l0 -320 -240 0 -240 0 0 240 0 240 -240 0 -240 0 0 -240
0 -240 -240 0 -240 0 0 320 0 320 720 0 720 0 0 -320z m-2655 -20 l300 -300
-605 0 -605 0 300 300 c165 165 302 300 305 300 3 0 140 -135 305 -300z m2015
-140 l0 -160 -80 0 -80 0 0 160 0 160 80 0 80 0 0 -160z m-1600 -640 l0 -320
-240 0 -240 0 0 240 0 240 -240 0 -240 0 0 -240 0 -240 -240 0 -240 0 0 320 0
320 720 0 720 0 0 -320z m2240 0 l0 -320 -240 0 -240 0 0 240 0 240 -240 0
-240 0 0 -240 0 -240 -240 0 -240 0 0 320 0 320 720 0 720 0 0 -320z m-2880
-160 l0 -160 -80 0 -80 0 0 160 0 160 80 0 80 0 0 -160z m2240 0 l0 -160 -80
0 -80 0 0 160 0 160 80 0 80 0 0 -160z m-1600 -640 l0 -320 -240 0 -240 0 0
240 0 240 -240 0 -240 0 0 -240 0 -240 -240 0 -240 0 0 320 0 320 720 0 720 0
0 -320z m2240 0 l0 -320 -240 0 -240 0 0 240 0 240 -240 0 -240 0 0 -240 0
-240 -240 0 -240 0 0 320 0 320 720 0 720 0 0 -320z m-2880 -160 l0 -160 -80
0 -80 0 0 160 0 160 80 0 80 0 0 -160z m2240 0 l0 -160 -80 0 -80 0 0 160 0
160 80 0 80 0 0 -160z"/>
</g>
</svg>
