<?xml version="1.0" standalone="no"?>
<!DOCTYPE svg PUBLIC "-//W3C//DTD SVG 20010904//EN"
 "http://www.w3.org/TR/2001/REC-SVG-20010904/DTD/svg10.dtd">
<svg version="1.0" xmlns="http://www.w3.org/2000/svg"
 width="50.000000pt" height="50.000000pt" viewBox="0 0 512.000000 512.000000"
 preserveAspectRatio="xMidYMid meet">

<g transform="translate(0.000000,512.000000) scale(0.100000,-0.100000)"
fill="#ffffff" stroke="none">
<path d="M51 5106 c-53 -30 -50 127 -51 -2544 0 -2715 -4 -2525 57 -2551 21
-8 632 -11 2420 -9 l2392 3 23 23 23 23 5 727 5 727 72 5 c86 6 112 25 120 89
l6 43 -592 591 -591 592 0 1108 c0 1204 3 1149 -55 1175 -40 19 -3801 17
-3834 -2z m3689 -1130 l0 -943 -51 5 -51 5 -694 -694 -694 -694 0 -43 c0 -35
6 -49 29 -73 27 -26 36 -29 95 -29 l66 0 0 -655 0 -655 -1120 0 -1120 0 0
2360 0 2360 1770 0 1770 0 0 -944z m698 -2266 c-360 -5 -365 -6 -394 -61 -19
-38 -11 -79 23 -113 l26 -26 313 0 314 0 0 -655 0 -655 -245 0 -245 0 0 500
c0 552 2 537 -62 559 -20 7 -188 11 -490 11 -391 0 -463 -2 -488 -15 -61 -31
-60 -26 -60 -565 l0 -490 -245 0 -245 0 0 655 0 655 316 0 316 0 29 29 c51 51
33 137 -33 160 -20 7 -149 11 -352 11 l-321 0 545 545 545 545 543 -542 542
-543 -332 -5z m-408 -1075 l0 -435 -350 0 -350 0 0 435 0 435 350 0 350 0 0
-435z"/>
<path d="M1361 4166 c-57 -32 -68 -111 -22 -157 l30 -29 619 2 c591 3 621 4
641 22 46 42 35 133 -20 161 -40 21 -1211 22 -1248 1z"/>
<path d="M855 3611 c-37 -16 -60 -51 -60 -93 0 -33 6 -45 33 -69 l32 -29 1125
0 1125 0 30 28 c40 36 47 77 20 120 -11 18 -32 37 -46 42 -31 12 -2230 13
-2259 1z"/>
<path d="M855 3051 c-37 -16 -60 -51 -60 -93 0 -33 6 -45 33 -69 l32 -29 1125
0 1125 0 30 28 c40 36 47 77 20 120 -11 18 -32 37 -46 42 -31 12 -2230 13
-2259 1z"/>
<path d="M855 2491 c-37 -16 -60 -51 -60 -93 0 -33 6 -45 33 -69 l32 -29 581
0 581 0 29 29 c31 31 39 83 19 122 -27 49 -30 49 -632 48 -310 0 -572 -4 -583
-8z"/>
<path d="M1080 2042 c-26 -13 -38 -27 -48 -58 -10 -33 -21 -44 -57 -62 -137
-66 -209 -214 -170 -347 39 -136 140 -218 289 -234 88 -10 133 -32 151 -74 18
-43 9 -79 -26 -113 -23 -22 -41 -29 -87 -32 -55 -4 -61 -2 -95 28 -25 22 -38
43 -42 68 -10 56 -25 79 -62 97 -28 13 -40 14 -69 5 -52 -17 -77 -62 -69 -124
13 -101 71 -185 165 -235 48 -26 62 -39 67 -62 8 -40 56 -79 98 -79 44 0 95
42 95 78 0 23 10 32 65 61 217 112 227 405 19 527 -51 30 -85 40 -178 53 -101
14 -149 67 -126 137 23 70 107 99 184 65 48 -21 76 -62 76 -111 0 -12 13 -35
29 -51 40 -40 89 -40 133 0 31 27 33 34 31 87 -4 107 -71 202 -183 259 -35 18
-50 31 -50 46 0 33 -20 60 -55 75 -43 18 -43 18 -85 -4z"/>
<path d="M3638 1694 c-27 -14 -58 -60 -58 -84 0 -27 33 -78 56 -89 44 -20 83
-13 115 18 51 51 33 137 -33 160 -39 14 -47 13 -80 -5z"/>
</g>
</svg>
