<?xml version="1.0" standalone="no"?>
<!DOCTYPE svg PUBLIC "-//W3C//DTD SVG 20010904//EN"
 "http://www.w3.org/TR/2001/REC-SVG-20010904/DTD/svg10.dtd">
<svg version="1.0" xmlns="http://www.w3.org/2000/svg"
 width="50.000000pt" height="50.000000pt" viewBox="0 0 512.000000 512.000000"
 preserveAspectRatio="xMidYMid meet">

<g transform="translate(0.000000,512.000000) scale(0.100000,-0.100000)"
fill="#ffffff" stroke="none">
<path d="M2185 5015 c-14 -13 -25 -31 -25 -39 0 -11 -19 -16 -77 -21 -255 -20
-453 -55 -643 -112 -536 -161 -979 -468 -1308 -907 -60 -79 -66 -113 -27 -151
33 -34 55 -32 164 16 127 54 298 97 448 111 224 21 483 -20 694 -111 52 -23
101 -41 109 -41 9 0 52 15 97 34 148 63 318 107 471 121 l72 8 0 -1137 0
-1137 25 -24 c32 -33 78 -33 110 0 l25 24 0 1137 0 1137 73 -7 c150 -15 357
-69 486 -127 35 -16 71 -29 80 -29 9 0 59 19 111 41 164 71 393 119 570 119
177 0 406 -48 570 -119 110 -48 132 -50 165 -16 40 39 33 71 -35 162 -360 484
-902 824 -1520 952 -97 21 -282 45 -422 56 -59 5 -78 10 -78 21 0 26 -47 64
-80 64 -19 0 -40 -9 -55 -25z m194 -256 c118 -62 243 -226 339 -443 42 -97
124 -327 118 -333 -1 -2 -41 8 -87 22 -222 67 -487 91 -709 66 -86 -10 -272
-53 -377 -86 l-23 -7 16 53 c48 163 148 392 221 504 22 33 66 88 98 123 132
142 265 176 404 101z m-553 -21 c-131 -163 -255 -422 -336 -704 l-23 -80 -111
37 c-138 47 -227 66 -384 81 -164 16 -383 -3 -546 -47 -35 -10 177 188 303
283 298 225 614 365 996 442 132 27 133 27 101 -12z m1004 -4 c369 -80 748
-269 1036 -517 134 -116 218 -202 188 -193 -63 19 -173 37 -286 48 -216 20
-480 -16 -687 -94 l-65 -25 -63 190 c-87 259 -183 450 -300 596 l-28 34 45 -8
c25 -3 97 -18 160 -31z"/>
<path d="M3835 3669 c-33 -5 -100 -21 -150 -35 -240 -71 -277 -76 -415 -48
-92 19 -122 12 -142 -31 -9 -20 -4 -60 27 -214 l38 -190 -101 -114 c-260 -292
-424 -561 -497 -812 -35 -119 -44 -279 -21 -385 23 -111 92 -242 172 -328 l66
-72 -377 0 -377 0 -20 23 c-11 12 -271 458 -579 992 -308 533 -570 981 -582
993 -42 45 -97 66 -172 67 -67 0 -74 -2 -172 -58 -56 -32 -118 -76 -137 -97
-39 -44 -69 -129 -61 -175 6 -29 4 -31 -115 -98 -120 -68 -140 -87 -140 -127
0 -12 178 -329 395 -706 217 -376 395 -688 395 -694 0 -6 -178 -318 -395 -694
-246 -426 -395 -694 -395 -711 0 -14 11 -37 25 -50 24 -25 25 -25 229 -25 128
0 214 4 229 11 16 7 60 73 133 200 l109 189 349 -3 348 -2 104 -180 c57 -99
113 -188 125 -197 19 -16 46 -18 230 -18 201 0 209 1 234 23 44 37 37 67 -54
224 -44 78 -81 145 -81 148 0 3 433 4 961 3 l961 -3 104 -180 c57 -99 113
-188 125 -197 19 -16 46 -18 229 -18 195 0 209 1 234 21 45 36 37 72 -54 228
-44 76 -80 141 -80 145 0 3 83 6 185 6 249 0 235 -13 235 218 0 146 2 171 17
183 9 8 27 37 39 64 21 43 24 65 24 169 0 144 -11 184 -67 246 -66 74 -94 80
-361 80 l-224 0 65 70 c69 74 134 187 161 280 23 75 31 229 17 317 -43 279
-237 616 -555 967 l-69 77 37 222 c20 122 36 230 36 240 0 10 -11 29 -25 42
-21 22 -32 25 -92 24 -37 -1 -95 -5 -128 -10z m65 -170 c0 -13 -38 -242 -45
-276 l-5 -23 -254 0 -253 0 -18 100 c-10 55 -19 102 -19 106 -1 4 35 6 80 5
86 -2 136 8 324 64 118 35 190 44 190 24z m-3146 -161 c14 -13 275 -457 581
-988 306 -531 568 -978 583 -993 15 -16 45 -39 67 -50 l40 -22 1408 -5 1409
-5 19 -24 c16 -20 19 -40 19 -133 0 -102 -1 -110 -25 -133 l-24 -25 -1528 0
-1528 0 -630 1091 c-346 600 -636 1105 -643 1122 -22 51 -2 80 97 137 47 27
96 50 108 50 12 0 33 -10 47 -22z m3211 -382 c244 -268 426 -555 485 -766 64
-230 18 -432 -135 -585 -77 -78 -156 -125 -251 -149 -91 -24 -837 -24 -928 0
-95 25 -174 71 -252 150 -149 149 -196 337 -139 559 57 224 233 508 490 791
l77 84 288 0 288 0 77 -84z m-2760 -1326 c433 -750 790 -1370 792 -1377 4 -10
-16 -13 -84 -13 l-90 0 -772 1337 c-425 736 -773 1342 -774 1347 -3 12 126 87
134 78 4 -4 361 -621 794 -1372z m-187 -315 l42 -75 -287 -500 -288 -499 -93
-1 -94 0 19 33 c11 17 160 276 332 575 172 298 316 542 320 542 3 0 25 -34 49
-75z m261 -453 c68 -117 121 -215 119 -218 -3 -2 -116 -3 -251 -2 l-245 3 125
218 c69 119 127 216 128 215 1 -2 57 -99 124 -216z m3521 -142 l0 -80 -1420 0
-1419 0 -42 73 c-23 39 -44 75 -46 80 -2 4 655 7 1461 7 l1466 0 0 -80z m-386
-354 c36 -62 66 -116 66 -120 0 -3 -40 -6 -89 -6 l-88 0 -67 115 c-36 63 -66
117 -66 120 0 3 40 5 89 5 l89 0 66 -114z"/>
<path d="M3545 2855 c-21 -20 -25 -34 -25 -85 0 -54 -2 -60 -20 -60 -12 0 -40
-9 -63 -21 -163 -82 -207 -296 -87 -432 59 -67 112 -89 237 -97 100 -6 105 -8
136 -38 27 -28 32 -40 32 -82 0 -43 -5 -54 -33 -82 -32 -32 -34 -33 -123 -33
l-90 0 -44 48 c-35 36 -51 47 -75 47 -43 0 -65 -14 -79 -49 -11 -25 -10 -35 4
-65 24 -50 95 -110 152 -128 l48 -15 5 -63 c4 -49 10 -66 29 -81 32 -26 77
-24 106 6 21 20 25 34 25 85 0 54 2 60 20 60 12 0 38 9 59 20 168 85 212 295
91 433 -59 67 -112 89 -237 97 -100 6 -105 8 -136 38 -27 28 -32 40 -32 82 0
43 5 54 33 82 32 32 34 33 123 33 l91 0 34 -40 c62 -71 67 -75 99 -75 70 0 96
77 51 149 -38 60 -92 97 -178 125 -14 4 -18 17 -18 61 0 46 -4 60 -25 80 -15
16 -36 25 -55 25 -19 0 -40 -9 -55 -25z"/>
</g>
</svg>
